<?xml version="1.0" standalone="no"?>
<!DOCTYPE svg PUBLIC "-//W3C//DTD SVG 20010904//EN"
 "http://www.w3.org/TR/2001/REC-SVG-20010904/DTD/svg10.dtd">
<svg version="1.0" xmlns="http://www.w3.org/2000/svg"
 width="459.000000pt" height="459.000000pt" viewBox="0 0 459.000000 459.000000"
 preserveAspectRatio="xMidYMid meet">
<metadata>
Created by potrace 1.14, written by Peter Selinger 2001-2017
</metadata>
<g transform="translate(0.000000,459.000000) scale(0.100000,-0.100000)"
fill="#000000" stroke="none">
<path d="M1775 4110 c-100 -35 -112 -40 -280 -120 -110 -52 -128 -65 -208
-146 -123 -123 -145 -166 -152 -283 -2 -51 -7 -96 -10 -101 -3 -5 -8 -44 -12
-87 -6 -86 -12 -98 -50 -108 -45 -11 -172 -77 -178 -93 -11 -29 19 -78 76
-125 36 -30 61 -59 65 -75 10 -49 37 -116 62 -156 19 -31 21 -40 10 -47 -14
-9 -27 -12 -41 -10 -9 1 -5 -27 13 -94 5 -22 13 -56 16 -75 3 -19 17 -64 31
-100 64 -168 76 -214 75 -285 -1 -67 1 -74 39 -132 27 -43 51 -99 76 -184 19
-67 48 -151 64 -185 l28 -63 -35 -28 c-98 -77 -133 -123 -159 -206 -23 -70
-32 -105 -34 -129 -2 -12 -84 -64 -141 -87 -30 -13 -141 -65 -247 -117 -105
-52 -196 -94 -201 -94 -5 0 -36 -21 -69 -47 -34 -27 -83 -63 -110 -82 -26 -19
-66 -56 -88 -82 -60 -71 -151 -258 -180 -369 -13 -52 -36 -125 -50 -163 -13
-37 -27 -82 -30 -100 -3 -17 -8 -48 -11 -67 -3 -19 -8 -43 -11 -52 -4 -17 109
-18 2276 -18 l2280 0 1 575 0 575 -202 99 c-246 120 -366 174 -461 206 -148
49 -155 55 -240 175 -56 80 -92 114 -185 177 -114 77 -250 208 -263 254 -7 21
-23 48 -35 60 -13 13 -24 26 -24 31 0 5 -5 14 -10 21 -59 69 -60 72 -53 97 7
25 8 91 3 280 -2 58 0 116 4 130 10 34 20 273 13 302 -10 35 -53 51 -90 33
-38 -19 -38 -19 -32 8 16 74 14 101 -9 160 -32 82 -43 118 -61 207 -9 41 -18
82 -20 90 -5 23 -74 210 -92 250 -59 132 -77 162 -119 196 -89 73 -209 131
-289 139 -137 15 -159 18 -253 41 -86 21 -103 24 -212 30 -87 4 -102 2 -185
-26z"/>
</g>
</svg>
